<?xml version="1.0" standalone="no"?>
<!DOCTYPE svg PUBLIC "-//W3C//DTD SVG 20010904//EN"
 "http://www.w3.org/TR/2001/REC-SVG-20010904/DTD/svg10.dtd">
<svg version="1.0" xmlns="http://www.w3.org/2000/svg"
 width="128.000000pt" height="128.000000pt" viewBox="0 0 128.000000 128.000000"
 preserveAspectRatio="xMidYMid meet">
<metadata>
Created by potrace 1.14, written by Peter Selinger 2001-2017
</metadata>
<g transform="translate(0.000000,128.000000) scale(0.100000,-0.100000)"
fill="#000000" stroke="none">
<path d="M180 1187 c-30 -24 -72 -63 -94 -86 -34 -39 -37 -45 -22 -59 14 -14
17 -13 38 13 36 46 70 78 120 114 29 20 44 39 41 47 -8 22 -25 17 -83 -29z"/>
<path d="M432 1204 c-87 -23 -159 -67 -240 -146 -92 -91 -145 -213 -128 -300
4 -21 23 -59 42 -84 l36 -47 -25 -51 c-83 -170 -72 -254 52 -368 168 -156 438
-195 568 -81 20 18 83 141 83 163 0 13 16 13 40 0 31 -16 122 -19 157 -5 56
23 161 115 182 159 26 54 22 159 -9 236 -60 151 -205 286 -343 320 -47 11 -55
18 -87 66 -91 143 -177 179 -328 138z"/>
<path d="M862 1078 c2 -12 10 -23 18 -23 22 0 19 39 -3 43 -15 3 -18 -1 -15
-20z"/>
<path d="M940 1055 c0 -8 17 -22 38 -31 36 -17 142 -101 172 -138 14 -15 18
-16 28 -4 17 21 -40 85 -127 142 -69 47 -111 58 -111 31z"/>
<path d="M1134 260 c-13 -13 -114 -50 -136 -50 -12 0 -18 -8 -18 -21 0 -19 4
-20 43 -14 23 4 66 18 96 31 48 22 52 26 40 41 -7 10 -14 19 -14 20 -1 2 -6
-2 -11 -7z"/>
<path d="M900 180 c0 -13 7 -20 20 -20 13 0 20 7 20 20 0 13 -7 20 -20 20 -13
0 -20 -7 -20 -20z"/>
</g>
</svg>
